#!OML:ASF I:\Actors\actors\Patient Classification 1\Patient 1\Session 1\Subject1.ASF
:FULLY-SPECIFIED
:DEGREES
889
root 0.82625 17.5368 8.40203 6.82892 -1.45712 -8.20641
lowerback 1.05026 0.739075 7.22471
upperback -10.2792 1.64426 1.2901
thorax -11.5158 0.192544 -2.80857
lowerneck -13.2681 -3.94471 -2.32984
upperneck 27.5776 -6.81878 5.73602
head 11.4478 -2.65184 1.55895
rclavicle -4.47266e-015 -5.96354e-015
rhumerus 7.9109 29.6634 -85.6084
rradius 52.2347
rwrist -3.72391
rhand -12.8095 327.764
rfingers 7.12502
rthumb 13.2768 -61.7931
lclavicle -4.47266e-015 -5.96354e-015
lhumerus 9.89433 -6.11701 95.6091
lradius 27.1371
lwrist -11.469
lhand -42.8718 -42.5517
lfingers 7.12502
lthumb -15.7349 346.829
rfemur -6.61239 22.6148 25.1713
rtibia 10.3274
rfoot -12.6607 -18.318
rtoes -1.48714
lfemur 1.63373 -31.4791 -9.4414
ltibia -0.742136
lfoot -10.5096 39.7507
ltoes -2.53243
890
root 0.832516 17.5354 8.4117 6.94364 -1.60998 -8.09853
lowerback 1.00546 0.761472 7.29443
upperback -10.2893 1.67005 1.23462
thorax -11.4958 0.195388 -2.90915
lowerneck -13.057 -3.8758 -1.65374
upperneck 26.6802 -6.57609 4.89007
head 10.992 -2.59941 1.16925
rclavicle -7.05686e-015 3.57812e-015
rhumerus 6.0853 26.6012 -87.9278
rradius 47.8866
rwrist -1.73311
rhand -10.7536 329.152
rfingers 7.12502
rthumb 15.2579 -60.265
lclavicle -7.05686e-015 3.57812e-015
lhumerus 9.05708 4.72571 98.1843
lradius 22.0064
lwrist -17.3995
lhand -41.3183 -38.1924
lfingers 7.12502
lthumb -14.2383 351.3
rfemur -6.59752 22.7682 24.988
rtibia 10.1225
rfoot -12.5378 -18.2938
rtoes -1.48802
lfemur 1.66231 -31.6257 -9.63893
ltibia -0.790424
lfoot -10.6281 40.045
ltoes -2.35975
891
root 0.840027 17.5316 8.42232 7.02203 -1.7547 -8.06783
lowerback 0.992006 0.717342 7.42729
upperback -10.2675 1.61895 1.26156
thorax -11.469 0.160694 -2.94799
lowerneck -12.9977 -3.77382 -1.51041
upperneck 25.934 -6.33176 4.60258
head 10.6749 -2.52503 1.07449
rclavicle 9.83984e-015 -8.74653e-015
rhumerus 4.42989 23.4156 -89.9014
rradius 43.5868
rwrist 1.04945
rhand -8.29976 330.001
rfingers 7.12502
rthumb 17.6204 -59.2206
lclavicle 9.83984e-015 -8.74653e-015
lhumerus 8.93046 19.4353 100.805
lradius 17.5316
lwrist -26.5952
lhand -40.4572 -34.1992
lfingers 7.12502
lthumb -13.4084 355.349
rfemur -6.54195 22.9328 24.9041
rtibia 9.93918
rfoot -12.3269 -18.3018
rtoes -1.98289
lfemur 1.76099 -31.8259 -9.77743
ltibia -0.862425
lfoot -10.7603 40.3567
ltoes -2.10678
892
root 0.847598 17.5257 8.4338 7.05169 -1.87214 -8.11556
lowerback 0.908363 0.675176 7.57129
upperback -10.1638 1.56404 1.33795
thorax -11.3056 0.133132 -2.93796
lowerneck -12.8628 -3.65419 -1.36677
upperneck 25.0745 -6.08187 4.39652
head 10.3106 -2.44055 1.01196
rclavicle 3.47873e-015 -3.97569e-015
rhumerus 2.96182 20.4351 -91.2555
rradius 39.5551
rwrist 2.9696
rhand -6.50965 330.54
rfingers 7.12502
rthumb 19.3424 -58.5179
lclavicle 3.47873e-015 -3.97569e-015
lhumerus 10.2399 38.8703 104.275
lradius 13.8539
lwrist -40.3932
lhand -40.2749 -32.3905
lfingers 7.12502
lthumb -13.2328 357.169
rfemur -6.44485 23.0327 24.9419
rtibia 9.79135
rfoot -12.2064 -18.3602
rtoes -2.73516
lfemur 1.91827 -31.9464 -9.83306
ltibia -0.960685
lfoot -10.8702 40.5702
ltoes -1.89037
893
root 0.854728 17.5213 8.44704 7.05739 -1.98359 -8.1367
lowerback 0.853466 0.655575 7.69328
upperback -10.0477 1.53665 1.37877
thorax -11.1418 0.119413 -2.9579
lowerneck -12.8176 -3.57184 -1.19431
upperneck 24.3393 -5.89215 4.14521
head 10.0145 -2.38107 0.920139
rclavicle 8.39865e-015 -2.38542e-014
rhumerus 1.35428 17.3961 -92.2877
rradius 36.0263
rwrist 4.06358
rhand -5.75494 330.967
rfingers 7.12502
rthumb 20.0679 -58.0167
lclavicle 8.39865e-015 -2.38542e-014
lhumerus 13.6806 59.8258 109.324
lradius 11.883
lwrist -56.9796
lhand -41.7572 -32.8337
lfingers 7.12502
lthumb -14.6613 356.628
rfemur -6.31046 23.1244 24.9689
rtibia 9.63194
rfoot -12.273 -18.4452
rtoes -2.85558
lfemur 2.0874 -32.0009 -9.93146
ltibia -1.03053
lfoot -10.9778 40.7336
ltoes -1.83449
894
root 0.861364 17.5199 8.46128 7.1067 -2.08302 -8.09997
lowerback 0.891833 0.659085 7.79215
upperback -9.96605 1.54493 1.35839
thorax -11.0694 0.117598 -3.0364
lowerneck -12.8468 -3.46406 -0.890823
upperneck 23.6146 -5.68683 3.83686
head 9.73501 -2.30661 0.788425
rclavicle 1.05853e-014 -2.3059e-014
rhumerus -0.19717 11.7194 -93.2374
rradius 32.9378
rwrist 10.9197
rhand -4.1745 331.485
rfingers 7.12502
rthumb 21.5864 -57.3315
lclavicle 1.05853e-014 -2.3059e-014
lhumerus 13.0857 70.1271 109.386
lradius 11.7856
lwrist -61.7987
lhand -42.8543 -30.1388
lfingers 7.12502
lthumb -15.718 359.243
rfemur -6.23494 23.2493 24.9066
rtibia 9.49043
rfoot -12.3559 -18.5192
rtoes -2.69743
lfemur 2.13215 -32.0128 -10.0466
ltibia -1.00379
lfoot -11.1829 40.8246
ltoes -1.58164
895
root 0.873243 17.5146 8.47541 7.10957 -1.99216 -8.39344
lowerback 1.28293 0.655016 8.43496
upperback -9.99157 1.626 1.32912
thorax -11.3317 0.0850284 -3.43966
lowerneck -12.8542 -3.4161 -0.661592
upperneck 22.8582 -5.58363 3.65815
head 9.45391 -2.27254 0.703145
rclavicle -8.24956e-015 4.07509e-014
rhumerus -1.60599 10.4291 -93.0107
rradius 29.8926
rwrist 10.7899
rhand -1.67912 330.949
rfingers 7.12502
rthumb 23.9811 -57.5731
lclavicle -8.24956e-015 4.07509e-014
lhumerus 2.38111 69.654 98.989
lradius 12.444
lwrist -55.6394
lhand -42.797 -27.5022
lfingers 7.12502
lthumb -15.6628 361.884
rfemur -6.06025 23.1726 25.258
rtibia 9.34602
rfoot -12.2849 -18.4971
rtoes -3.18769
lfemur 2.14284 -31.8636 -9.74308
ltibia -0.950476
lfoot -11.2862 40.6021
ltoes -1.4527
896
root 0.892999 17.5008 8.48741 6.92226 -1.67019 -9.4042
lowerback 2.16357 0.602622 10.0281
upperback -10.1022 1.80422 1.41514
thorax -11.9968 -0.00756903 -4.2649
lowerneck -12.7244 -3.42567 -0.520999
upperneck 22.1048 -5.56292 3.56195
head 9.15891 -2.27789 0.654443
rclavicle 5.96354e-016 -5.96354e-015
rhumerus -3.72209 7.31696 -93.0325
rradius 27.5311
rwrist 11.9799
rhand -5.40915 333.211
rfingers 7.12502
rthumb 20.4003 -55.7373
lclavicle 5.96354e-016 -5.96354e-015
lhumerus -7.84021 64.2297 89.3638
lradius 13.2832
lwrist -46.1886
lhand -41.6819 -25.5804
lfingers 7.12502
lthumb -14.5887 363.887
rfemur -5.5747 22.7637 26.5615
rtibia 9.16667
rfoot -12.197 -18.3326
rtoes -3.78158
lfemur 2.46371 -31.6922 -8.73902
ltibia -1.07141
lfoot -11.172 40.2147
ltoes -1.82155
897
root 0.880816 17.5132 8.51583 7.28029 -1.86358 -8.37447
lowerback 1.82831 0.6466 8.61995
upperback -10.1212 1.69372 1.27405
thorax -11.8099 0.073326 -3.61992
lowerneck -12.4807 -3.40562 -0.321891
upperneck 20.8969 -5.45801 3.32887
head 8.68278 -2.26385 0.564963
rclavicle -9.54166e-015 2.70347e-014
rhumerus -5.72751 4.23608 -92.6924
rradius 26.0156
rwrist 12.9671
rhand -2.41089 331.792
rfingers 7.12502
rthumb 23.2792 -56.8212
lclavicle -9.54166e-015 2.70347e-014
lhumerus -14.3941 60.1924 83.5377
lradius 13.9573
lwrist -40.1502
lhand -39.7033 -25.0173
lfingers 7.12502
lthumb -12.6818 364.578
rfemur -5.98198 23.3222 25.2126
rtibia 9.15153
rfoot -12.3135 -18.8268
rtoes -3.19122
lfemur 2.18368 -32.2698 -9.83085
ltibia -1.04903
lfoot -11.536 40.8532
ltoes -1.2145
